<?xml version="1.0" encoding="UTF-8"?>
<svg version="1.1" xmlns="http://www.w3.org/2000/svg" width="512" height="512">
<path d="M0 0 C1.43085937 0.65355469 1.43085937 0.65355469 2.890625 1.3203125 C17.45558343 8.60279172 25.62259665 19.8809239 31 35 C31.391875 36.19625 31.78375 37.3925 32.1875 38.625 C37.91735607 49.29438717 49.67875599 54.04974076 60.578125 57.9140625 C69.8137656 60.40569216 77.75090876 58.38504478 86.12109375 54.27734375 C100.57342709 47.86497875 116.6251193 48.67199661 131.203125 54.21875 C138.66249496 57.66153614 144.18168236 62.27894907 150 68 C150.99971911 68.8977544 152.00244572 69.79216854 153.0078125 70.68359375 C164.29201983 80.94695009 171.51741053 94.07106208 172.3359375 109.5078125 C172.36545436 111.04664702 172.37805252 112.58588545 172.375 114.125 C172.37411377 114.94323242 172.37322754 115.76146484 172.37231445 116.60449219 C172.19690363 125.76859468 170.19202228 134.17435873 166.390625 142.54296875 C162.4071042 152.44582242 165.39649088 163.38291777 169 173 C170.49295226 176.12851489 172.1861614 179.05096989 174 182 C174.29648437 182.69867188 174.59296875 183.39734375 174.8984375 184.1171875 C176.82480449 187.40977221 180.54750365 188.26191693 184.01171875 189.515625 C201.6932752 196.04530489 214.57606141 204.39684681 223 222 C226.68058097 231.8630651 227.62426637 241.09823604 227.5 251.5625 C227.51546875 252.86896484 227.5309375 254.17542969 227.546875 255.52148438 C227.4827118 271.61842658 222.3045174 286.12850144 211.19140625 297.9375 C200.96548024 307.56190095 188.34130476 313.4399068 174.375 314.4375 C168.16752868 314.95978379 164.1962093 316.50539342 159.875 321.0625 C155.67523539 326.29010174 153.33698933 332.11152002 152.5625 338.75 C153.30803465 344.28825742 155.58385842 347.62413458 159.3125 351.625 C168.66708126 361.98821475 173 376.21685823 173 390 C171.49321431 411.02436907 162.13094454 425.49129942 146.85742188 439.39111328 C134.99304886 449.66795583 119.61749802 453.00916052 104.25 452.39453125 C95.73210087 451.77686591 87.41317846 449.38229981 79.5 446.25 C69.66708475 442.87228102 58.3018839 444.19732102 48.97265625 448.3359375 C39.17165904 453.82243528 34.3663393 460.8797675 30 471 C23.81864205 485.2263492 14.09820914 497.08030776 -0.375 503.49609375 C-16.88346186 509.99998553 -40.31740901 511.57154883 -57.046875 504.5546875 C-61.93817025 501.97964053 -66.54185698 499.27325451 -71 496 C-71.63164062 495.57460938 -72.26328125 495.14921875 -72.9140625 494.7109375 C-81.41276247 488.38542108 -86.6894224 478.0025023 -89.625 468.0625 C-92.25489628 459.60489336 -95.17498463 456.03791145 -102.8671875 451.84765625 C-113.35255153 446.36648032 -124.05399994 442.2376229 -136.02001953 445.56103516 C-139.29932046 446.73215641 -142.47171337 448.12627044 -145.65625 449.53125 C-158.26293038 455.06876381 -174.15137057 454.67867334 -187 450 C-195.83696802 446.46973877 -202.26455593 441.63829824 -209 435 C-209.845625 434.23816406 -210.69125 433.47632813 -211.5625 432.69140625 C-222.49769585 422.53967718 -229.46494838 409.96964767 -230.34375 394.953125 C-230.78037332 383.20110661 -229.54887289 373.84418804 -225 363 C-220.37877836 350.99565473 -221.43744703 339.90083328 -226.25390625 327.8671875 C-231.16310873 318.04878254 -238.57833413 313.88969809 -248.375 309.625 C-255.77534092 306.24534479 -262.12480835 302.73530614 -268 297 C-268.78632813 296.24074219 -269.57265625 295.48148437 -270.3828125 294.69921875 C-281.50736979 283.189157 -285.37433665 270.67206062 -285.37060547 254.94140625 C-285.37494647 252.90017129 -285.41124258 250.86116168 -285.44921875 248.8203125 C-285.58763312 232.83932644 -280.78843885 220.02692518 -269.875 208.3125 C-261.50348503 200.39426502 -252.00108677 195.7013909 -241.16796875 192.0703125 C-232.70965811 189.21263418 -226.85573728 185.75709336 -222.77734375 177.53515625 C-218.22334338 166.68063923 -217.76663808 156.9766222 -222 146 C-222.81040868 144.36344654 -223.64422897 142.73829644 -224.5 141.125 C-230.94944656 128.51837787 -232.23116382 112.84674428 -228.875 99.0625 C-225.25810616 88.24530825 -219.9694203 80.08604596 -212 72 C-211.23816406 71.154375 -210.47632813 70.30875 -209.69140625 69.4375 C-198.62608944 57.51820964 -185.40146155 51.16066503 -169.14770508 50.55102539 C-152.69986412 50.26139705 -138.22013561 54.24635147 -125.9375 65.8125 C-121.29419304 69.27028178 -116.3926047 70.22430444 -110.63671875 69.84375 C-104.44658881 68.73187865 -98.59963592 66.00577816 -94.44042969 61.19677734 C-92.85298762 58.77579366 -92.51179402 57.29334387 -92.2265625 54.4375 C-92.12690186 53.56383789 -92.02724121 52.69017578 -91.92456055 51.79003906 C-91.82570557 50.86932617 -91.72685059 49.94861328 -91.625 49 C-89.4205637 31.49005038 -82.34737786 18.62449674 -69 7 C-51.36042932 -6.15923244 -19.98345865 -9.51874805 0 0 Z " fill="#45C9A5" transform="translate(285,4)"/>
<path d="M0 0 C4.99969633 2.84598099 9.32668418 6.85096141 11.65625 12.15625 C12.9348302 20.02443587 12.08131348 26.45617776 7.65625 33.15625 C3.81418295 37.59423511 -0.33566445 41.70605209 -4.49682617 45.84277344 C-5.75455487 47.10756675 -7.0114401 48.37319928 -8.26754761 49.63960266 C-11.66955696 53.06405401 -15.08410895 56.47573031 -18.50179458 59.88452816 C-21.35845101 62.73606339 -24.20886869 65.59379412 -27.05932218 68.45152783 C-33.78581769 75.19500577 -40.52251415 81.92816941 -47.26586914 88.65478516 C-54.21295934 95.58495255 -61.14350967 102.53134527 -68.06596965 109.48610854 C-74.01967186 115.46653426 -79.98306647 121.43716985 -85.95438367 127.40000749 C-89.51643839 130.95714152 -93.07485759 134.51772185 -96.62416649 138.08757782 C-99.96267955 141.44449122 -103.3131951 144.78895076 -106.67316818 148.12438011 C-107.90090117 149.34711928 -109.12443544 150.57409181 -110.34330559 151.80566597 C-123.44156339 165.02954345 -123.44156339 165.02954345 -133.3828125 166.65234375 C-134.23617187 166.63300781 -135.08953125 166.61367188 -135.96875 166.59375 C-136.82726562 166.59246094 -137.68578125 166.59117187 -138.5703125 166.58984375 C-146.15025009 165.40481125 -150.50593551 161.57387538 -155.71606445 156.28564453 C-156.76616447 155.24364899 -156.76616447 155.24364899 -157.83747864 154.18060303 C-160.13733207 151.89320629 -162.42242193 149.59167719 -164.70703125 147.2890625 C-166.30583584 145.69041294 -167.90530784 144.0924306 -169.50541687 142.49508667 C-172.85123062 139.15065546 -176.18997802 135.79937267 -179.52368164 132.44287109 C-183.79687516 128.14125956 -188.08549094 123.8554261 -192.3792696 119.57437325 C-195.68170183 116.27889482 -198.97672499 112.97608959 -202.26946068 109.67092514 C-203.84825058 108.08762032 -205.42913433 106.50640052 -207.01214027 104.92731094 C-209.22167653 102.7206847 -211.42126456 100.50460133 -213.6184082 98.28564453 C-214.27347351 97.63508087 -214.92853882 96.98451721 -215.60345459 96.3142395 C-220.69640799 91.13699563 -222.63070454 87.2381886 -222.78125 79.84375 C-222.66228492 73.65056791 -221.66914993 69.65127346 -217.34375 65.15625 C-211.98622792 60.00089856 -206.72833056 59.61741629 -199.4921875 59.6875 C-193.14488042 60.6325085 -189.24980322 63.88480375 -184.86083984 68.37792969 C-184.34944962 68.8969133 -183.83805939 69.41589691 -183.31117249 69.9506073 C-182.20953125 71.07026533 -181.1113213 72.19330793 -180.0162468 73.31938934 C-178.28347438 75.09992282 -176.54049428 76.86985998 -174.79434204 78.63726807 C-169.83461943 83.66105192 -164.89373704 88.70318405 -159.95996094 93.75244141 C-156.93556031 96.84618432 -153.89920141 99.92777004 -150.8552742 103.00229645 C-149.69819686 104.17617777 -148.54595931 105.35484969 -147.39866257 106.53829193 C-145.79952082 108.18763233 -144.1857649 109.82122974 -142.56787109 111.45214844 C-141.19603165 112.85421539 -141.19603165 112.85421539 -139.79647827 114.28460693 C-137.61053456 116.37441312 -137.61053456 116.37441312 -135.4861145 116.0476017 C-132.54191696 114.82263952 -130.85894057 113.03022122 -128.6131897 110.76626587 C-128.15256398 110.30608672 -127.69193825 109.84590758 -127.21735418 109.37178361 C-125.67495222 107.82729747 -124.1435402 106.2723564 -122.61181641 104.71728516 C-121.50834284 103.60805427 -120.40418441 102.49950433 -119.2993927 101.3915863 C-116.92096289 99.00366916 -114.54727522 96.61116904 -112.17708206 94.21507645 C-108.42797019 90.42542019 -104.66746321 86.64721215 -100.90512085 82.87069702 C-92.23860296 74.1680275 -83.58713126 65.4504496 -74.93579865 56.7326889 C-67.01214885 48.74848847 -59.08535594 40.76747797 -51.14632356 32.79856908 C-47.40799233 29.04530094 -43.67709718 25.28484065 -39.9517405 21.51869607 C-37.63007931 19.17462564 -35.30219158 16.83681511 -32.97258568 14.50064278 C-31.89524121 13.41769108 -30.82048888 12.33215338 -29.7485714 11.24382973 C-28.28203835 9.75556723 -26.80642044 8.27692085 -25.32827759 6.80020142 C-24.50570276 5.97096476 -23.68312794 5.1417281 -22.8356266 4.28736305 C-16.26726763 -1.33005618 -8.23039203 -2.96294113 0 0 Z " fill="#FEFEFE" transform="translate(361.34375,172.84375)"/>
</svg>
