<?xml version="1.0" encoding="UTF-8"?>
<svg version="1.1" xmlns="http://www.w3.org/2000/svg" width="512" height="512">
<path d="M0 0 C1.37264008 0.00031723 1.37264008 0.00031723 2.77301025 0.00064087 C18.36435682 0.03642495 33.32964892 1.14243658 48.625 4.375 C49.52750488 4.56223633 50.43000977 4.74947266 51.35986328 4.94238281 C91.23516168 13.46973194 128.5513943 32.95507458 158.109375 61.03515625 C160.58599999 63.40002498 160.58599999 63.40002498 163.25390625 65.4609375 C165.38172449 67.17861615 167.06018503 68.85183977 168.8125 70.9375 C170.7762211 73.24751171 172.75144722 75.50813755 174.83984375 77.70703125 C213.64505784 118.65062018 233.11287378 176.01782618 233 231.75 C232.99978851 232.71655518 232.99957703 233.68311035 232.99935913 234.67895508 C232.965432 250.25263444 232.00383241 265.12340247 228.625 280.375 C228.43776367 281.25897461 228.25052734 282.14294922 228.05761719 283.05371094 C218.4707083 327.57736895 195.68568794 366.41529061 163.625 398.375 C162.78582031 399.23738281 161.94664062 400.09976562 161.08203125 400.98828125 C155.25148921 406.9393958 149.25280965 412.30139867 142.625 417.375 C142.83503662 418.36161621 142.83503662 418.36161621 143.04931641 419.36816406 C147.30898417 440.75312745 145.51261296 461.91157942 133.82275391 480.61132812 C123.27449435 496.14345757 106.74555563 507.93947981 88.3046875 511.9375 C67.12899332 514.45520462 46.35879215 512.26608109 28.93164062 499.09521484 C17.89851594 490.09537508 9.75125845 479.73434022 4.625 466.375 C4.625 465.715 4.625 465.055 4.625 464.375 C-10.885 464.375 -26.395 464.375 -42.375 464.375 C-45.015 469.655 -47.655 474.935 -50.375 480.375 C-52.66872888 483.65175554 -54.73127024 486.4622181 -57.375 489.375 C-57.97828125 490.05820312 -58.5815625 490.74140625 -59.203125 491.4453125 C-66.97701394 499.75642141 -76.82160638 505.30568297 -87.375 509.375 C-88.62023437 509.85646484 -88.62023437 509.85646484 -89.890625 510.34765625 C-108.06279122 516.05966756 -129.33421742 513.30584175 -146.0625 504.8125 C-164.10650786 494.99368091 -176.20501001 478.31593786 -182.3125 458.9375 C-184.48575844 449.25783356 -185.54132074 434.87396222 -182.375 425.375 C-183.62796875 425.01921875 -183.62796875 425.01921875 -184.90625 424.65625 C-188.93601288 423.16777903 -192.27106005 421.18252695 -195.875 418.875 C-196.92167847 418.2106897 -196.92167847 418.2106897 -197.98950195 417.53295898 C-231.12933789 396.30198898 -258.38743199 368.9673086 -275.9375 333.5 C-276.28466064 332.82259766 -276.63182129 332.14519531 -276.98950195 331.44726562 C-279.35315715 326.47625443 -280.36497058 321.86557603 -279.375 316.375 C-277.24599711 312.91946455 -275.77771956 312.47412413 -271.8359375 311.50390625 C-270.47544179 311.30469557 -269.11332193 311.11634849 -267.75 310.9375 C-256.29988118 309.09120713 -246.59441604 304.57779414 -239.6171875 294.94921875 C-232.41260675 283.48105761 -232.2409818 271.9277709 -232.1640625 258.76953125 C-232.14316271 256.75843048 -232.12224471 254.74732975 -232.10036278 252.73623943 C-232.04782986 247.82723676 -232.0034169 242.91822779 -231.97363281 238.0090332 C-231.86856807 221.61767445 -231.47062395 205.52685099 -228.375 189.375 C-228.14570801 188.17705811 -227.91641602 186.97911621 -227.68017578 185.74487305 C-227.05523472 182.74850794 -226.36635688 179.78200372 -225.625 176.8125 C-225.23658936 175.24338867 -225.23658936 175.24338867 -224.84033203 173.64257812 C-215.43575406 136.6988325 -196.9905444 102.54925726 -170.71484375 74.890625 C-168.34997502 72.41400001 -168.34997502 72.41400001 -166.2890625 69.74609375 C-164.57138385 67.61827551 -162.89816023 65.93981497 -160.8125 64.1875 C-158.50248829 62.2237789 -156.24186245 60.24855278 -154.04296875 58.16015625 C-113.10134827 19.35680781 -55.74660919 -0.11976934 0 0 Z " fill="#BDF1F4" transform="translate(279.375,-0.375)"/>
<path d="M0 0 C1.37264008 0.00031723 1.37264008 0.00031723 2.77301025 0.00064087 C18.36435682 0.03642495 33.32964892 1.14243658 48.625 4.375 C49.52750488 4.56223633 50.43000977 4.74947266 51.35986328 4.94238281 C91.23516168 13.46973194 128.5513943 32.95507458 158.109375 61.03515625 C160.58599999 63.40002498 160.58599999 63.40002498 163.25390625 65.4609375 C165.38172449 67.17861615 167.06018503 68.85183977 168.8125 70.9375 C170.7762211 73.24751171 172.75144722 75.50813755 174.83984375 77.70703125 C213.64505784 118.65062018 233.11287378 176.01782618 233 231.75 C232.99978851 232.71655518 232.99957703 233.68311035 232.99935913 234.67895508 C232.965432 250.25263444 232.00383241 265.12340247 228.625 280.375 C228.43776367 281.25897461 228.25052734 282.14294922 228.05761719 283.05371094 C218.4707083 327.57736895 195.68568794 366.41529061 163.625 398.375 C162.78582031 399.23738281 161.94664062 400.09976562 161.08203125 400.98828125 C155.25148921 406.9393958 149.25280965 412.30139867 142.625 417.375 C142.83503662 418.36161621 142.83503662 418.36161621 143.04931641 419.36816406 C147.30898417 440.75312745 145.51261296 461.91157942 133.82275391 480.61132812 C123.27449435 496.14345757 106.74555563 507.93947981 88.3046875 511.9375 C67.12899332 514.45520462 46.35879215 512.26608109 28.93164062 499.09521484 C17.89851594 490.09537508 9.75125845 479.73434022 4.625 466.375 C4.625 465.715 4.625 465.055 4.625 464.375 C-10.885 464.375 -26.395 464.375 -42.375 464.375 C-45.015 469.655 -47.655 474.935 -50.375 480.375 C-52.66872888 483.65175554 -54.73127024 486.4622181 -57.375 489.375 C-57.97828125 490.05820312 -58.5815625 490.74140625 -59.203125 491.4453125 C-66.97701394 499.75642141 -76.82160638 505.30568297 -87.375 509.375 C-88.62023437 509.85646484 -88.62023437 509.85646484 -89.890625 510.34765625 C-108.06279122 516.05966756 -129.33421742 513.30584175 -146.0625 504.8125 C-164.10650786 494.99368091 -176.20501001 478.31593786 -182.3125 458.9375 C-184.48575844 449.25783356 -185.54132074 434.87396222 -182.375 425.375 C-183.62796875 425.01921875 -183.62796875 425.01921875 -184.90625 424.65625 C-188.93601288 423.16777903 -192.27106005 421.18252695 -195.875 418.875 C-196.92167847 418.2106897 -196.92167847 418.2106897 -197.98950195 417.53295898 C-231.12933789 396.30198898 -258.38743199 368.9673086 -275.9375 333.5 C-276.28466064 332.82259766 -276.63182129 332.14519531 -276.98950195 331.44726562 C-279.35315715 326.47625443 -280.36497058 321.86557603 -279.375 316.375 C-277.24599711 312.91946455 -275.77771956 312.47412413 -271.8359375 311.50390625 C-270.47544179 311.30469557 -269.11332193 311.11634849 -267.75 310.9375 C-256.29988118 309.09120713 -246.59441604 304.57779414 -239.6171875 294.94921875 C-232.41260675 283.48105761 -232.2409818 271.9277709 -232.1640625 258.76953125 C-232.14316271 256.75843048 -232.12224471 254.74732975 -232.10036278 252.73623943 C-232.04782986 247.82723676 -232.0034169 242.91822779 -231.97363281 238.0090332 C-231.86856807 221.61767445 -231.47062395 205.52685099 -228.375 189.375 C-228.14570801 188.17705811 -227.91641602 186.97911621 -227.68017578 185.74487305 C-227.05523472 182.74850794 -226.36635688 179.78200372 -225.625 176.8125 C-225.23658936 175.24338867 -225.23658936 175.24338867 -224.84033203 173.64257812 C-215.43575406 136.6988325 -196.9905444 102.54925726 -170.71484375 74.890625 C-168.34997502 72.41400001 -168.34997502 72.41400001 -166.2890625 69.74609375 C-164.57138385 67.61827551 -162.89816023 65.93981497 -160.8125 64.1875 C-158.50248829 62.2237789 -156.24186245 60.24855278 -154.04296875 58.16015625 C-113.10134827 19.35680781 -55.74660919 -0.11976934 0 0 Z M-152.375 79.375 C-153.53902344 80.45974609 -153.53902344 80.45974609 -154.7265625 81.56640625 C-161.35355457 87.92410359 -166.86717087 95.0555406 -172.375 102.375 C-172.80458008 102.93848145 -173.23416016 103.50196289 -173.67675781 104.08251953 C-191.691983 127.81851484 -203.82101381 155.54687615 -210.6875 184.4375 C-210.93000488 185.44031006 -211.17250977 186.44312012 -211.42236328 187.47631836 C-216.30282014 209.08311836 -215.73757767 231.1556884 -215.83129883 253.16967773 C-215.84732094 256.72550718 -215.87765354 260.28100229 -215.91606331 263.83665657 C-215.93303314 265.80603357 -215.93376628 267.77552975 -215.9339447 269.74497986 C-216.11251078 286.06500221 -220.71218446 300.38637912 -232.1640625 312.38671875 C-240.08553821 319.51044867 -249.60270225 323.48034703 -259.375 327.375 C-252.51941021 350.67690104 -230.11964348 373.1344651 -211.375 387.375 C-210.40691406 388.15875 -209.43882812 388.9425 -208.44140625 389.75 C-202.18020219 394.78805751 -195.6596951 399.22860422 -188.8125 403.4375 C-188.0383374 403.91493652 -187.2641748 404.39237305 -186.46655273 404.88427734 C-183.09899517 406.9140685 -180.25664877 408.5680526 -176.375 409.375 C-175.75753906 408.39660156 -175.14007813 407.41820312 -174.50390625 406.41015625 C-162.25981672 387.31230345 -146.88540914 375.16233571 -124.53076172 369.77416992 C-105.35890057 366.22422734 -85.7808833 371.43774447 -69.78515625 382.1015625 C-67.55250016 383.77319219 -65.45671008 385.51965062 -63.375 387.375 C-62.70082031 387.95636719 -62.02664062 388.53773438 -61.33203125 389.13671875 C-48.58107985 400.9011362 -40.71727611 418.99435658 -39.85302734 436.24804688 C-39.81902832 437.11494141 -39.7850293 437.98183594 -39.75 438.875 C-39.6836608 440.39130044 -39.61672725 441.90757495 -39.54931641 443.42382812 C-39.46302979 445.3796582 -39.46302979 445.3796582 -39.375 447.375 C-2.01455103 449.74589799 33.76761285 449.55203892 69.625 437.375 C70.52798828 437.07078125 71.43097656 436.7665625 72.36132812 436.453125 C103.51050865 425.76046085 129.97912197 408.02386279 153.625 385.375 C154.37523437 384.66601562 155.12546875 383.95703125 155.8984375 383.2265625 C161.2944222 378.00120182 166.00880613 372.29300544 170.625 366.375 C171.05184082 365.8298877 171.47868164 365.28477539 171.91845703 364.72314453 C193.08938203 337.46799757 207.41657914 305.29872598 213.625 271.375 C213.87056641 270.0449292 213.87056641 270.0449292 214.12109375 268.68798828 C223.81715236 213.62679597 210.9104931 155.52019514 179.17675781 109.54199219 C171.49151929 98.8097428 162.71536686 88.92758891 153.625 79.375 C152.90183594 78.59898438 152.17867188 77.82296875 151.43359375 77.0234375 C145.07589641 70.39644543 137.9444594 64.88282913 130.625 59.375 C130.06151855 58.94541992 129.49803711 58.51583984 128.91748047 58.07324219 C119.36343353 50.82187965 109.25517523 44.90912235 98.625 39.375 C97.95694336 39.02195801 97.28888672 38.66891602 96.60058594 38.30517578 C77.03944279 28.08425831 55.44638242 21.45660917 33.625 18.375 C32.43801514 18.19984863 31.25103027 18.02469727 30.02807617 17.84423828 C20.42497125 16.4891655 11.00322847 16.04716964 1.3125 16.125 C0.23341873 16.13064972 0.23341873 16.13064972 -0.86746216 16.13641357 C-58.96633924 16.49150288 -110.5473051 39.57122583 -152.375 79.375 Z " fill="#01ABD5" transform="translate(279.375,-0.375)"/>
<path d="M0 0 C4.25788015 0.88705836 5.57735169 1.99102753 8 5.625 C10.24052013 18.39173736 4.7728636 31.13628517 -2 41.625 C-10.22148115 52.73175566 -21.07405586 59.12270485 -34 63.625 C-34.66 63.625 -35.32 63.625 -36 63.625 C-24.13979342 86.51546643 -8.6102624 106.90381973 12 122.625 C12.969375 123.41003906 13.93875 124.19507813 14.9375 125.00390625 C21.22116659 130.02298494 27.7095845 134.47508796 34.5625 138.6875 C35.3366626 139.16493652 36.1108252 139.64237305 36.90844727 140.13427734 C40.27600483 142.1640685 43.11835123 143.8180526 47 144.625 C47.53367187 143.73039063 48.06734375 142.83578125 48.6171875 141.9140625 C60.23448868 122.86908981 75.42777264 111.75174262 96.7890625 105.51953125 C115.41552777 101.02997339 134.89786053 106.08074941 151 115.625 C154.21655469 117.75461495 157.12661121 120.05407318 160 122.625 C160.74765625 123.27984375 161.4953125 123.9346875 162.265625 124.609375 C173.75433427 135.31653942 183.08121951 152.00500949 184.15673828 167.94848633 C184.1953168 170.34401693 184.17571356 172.72975978 184.125 175.125 C184.11597656 175.94742188 184.10695312 176.76984375 184.09765625 177.6171875 C184.07436865 179.61992083 184.03850959 181.62250154 184 183.625 C185.0209375 183.61339844 186.041875 183.60179687 187.09375 183.58984375 C196.33715057 183.51746934 205.57348407 183.64561574 214.8125 183.9375 C215.84375 183.95997803 216.875 183.98245605 217.9375 184.00561523 C227.13143334 184.34036793 227.13143334 184.34036793 231 187.625 C232.40457737 190.43415474 232.24895157 192.51310534 232 195.625 C230.22015595 198.7609157 229.47691793 199.46602736 226 200.625 C224.51155284 200.71150584 223.01951743 200.74270173 221.52856445 200.73852539 C220.17750359 200.73841209 220.17750359 200.73841209 218.79914856 200.73829651 C217.83031235 200.73313522 216.86147614 200.72797394 215.86328125 200.72265625 C214.37141548 200.72053383 214.37141548 200.72053383 212.84941101 200.71836853 C209.67041018 200.71276761 206.49147957 200.70021496 203.3125 200.6875 C201.15820414 200.68248512 199.00390718 200.67792219 196.84960938 200.67382812 C191.56638226 200.66279788 186.28319615 200.64605886 181 200.625 C180.46310547 201.72199219 179.92621094 202.81898438 179.37304688 203.94921875 C178.65516407 205.40375254 177.93705303 206.85817369 177.21875 208.3125 C176.86651367 209.03373047 176.51427734 209.75496094 176.15136719 210.49804688 C173.36886642 216.11433874 170.22495592 220.97007069 166 225.625 C165.39671875 226.30820312 164.7934375 226.99140625 164.171875 227.6953125 C156.39798606 236.00642141 146.55339362 241.55568297 136 245.625 C134.75476563 246.10646484 134.75476563 246.10646484 133.484375 246.59765625 C115.31220878 252.30966756 94.04078258 249.55584175 77.3125 241.0625 C59.26849214 231.24368091 47.16998999 214.56593786 41.0625 195.1875 C38.88924156 185.50783356 37.83367926 171.12396222 41 161.625 C39.74703125 161.26921875 39.74703125 161.26921875 38.46875 160.90625 C34.43898712 159.41777903 31.10393995 157.43252695 27.5 155.125 C26.45332153 154.4606897 26.45332153 154.4606897 25.38549805 153.78295898 C-7.75433789 132.55198898 -35.01243199 105.2173086 -52.5625 69.75 C-53.08324097 68.73389648 -53.08324097 68.73389648 -53.61450195 67.69726562 C-55.97815715 62.72625443 -56.98997058 58.11557603 -56 52.625 C-53.87099711 49.16946455 -52.40271956 48.72412413 -48.4609375 47.75390625 C-47.10044179 47.55469557 -45.73832193 47.36634849 -44.375 47.1875 C-32.92488118 45.34120713 -23.21941604 40.82779414 -16.2421875 31.19921875 C-12.74936395 25.63938609 -10.54081816 20.47763249 -9.62109375 13.92578125 C-8.94002488 9.33010033 -8.46812052 6.28817073 -5.75 2.4375 C-3 0.625 -3 0.625 0 0 Z " fill="#283448" transform="translate(56,263.375)"/>
<path d="M0 0 C1.22468994 0.38599365 1.22468994 0.38599365 2.47412109 0.77978516 C29.07996292 9.22252765 53.34439192 21.3616447 75 39 C75.53189941 39.42893555 76.06379883 39.85787109 76.61181641 40.29980469 C89.00094067 50.33458621 100.28421987 61.32872032 110 74 C110.41958984 74.53786133 110.83917969 75.07572266 111.27148438 75.62988281 C146.61017565 121.1058775 161.69753831 178.66785157 154.81958008 235.66870117 C153.16451185 247.76575981 150.83200453 259.41168072 147 271 C146.75942871 271.76473633 146.51885742 272.52947266 146.27099609 273.31738281 C135.61424313 307.13115716 117.3555429 335.51254886 93 361 C92.13375 361.93457031 91.2675 362.86914062 90.375 363.83203125 C88 366 88 366 85 366 C83.56082312 363.12164623 83.75277543 360.58380261 83.6875 357.375 C83.65011719 356.18648438 83.61273438 354.99796875 83.57421875 353.7734375 C84.46871747 345.84604516 88.99599037 340.43763898 94.0625 334.5625 C128.56532232 293.21658545 142.55110983 240.18980354 138.58618164 186.98193359 C134.09286056 138.1631688 108.50972965 89.47661145 71.31542969 57.55419922 C67.31018958 54.23534555 63.18569536 51.08687633 59 48 C57.40865234 46.82630859 57.40865234 46.82630859 55.78515625 45.62890625 C43.03853824 36.53768426 29.32641638 29.26386267 15 23 C14.01515625 22.56042969 13.0303125 22.12085937 12.015625 21.66796875 C-32.90445465 2.9512689 -87.56861158 4.25510455 -132.44921875 22.09375 C-148.40932944 28.68889407 -162.89373329 36.75158231 -177.125 46.5 C-183.816385 50.95253814 -190.04662276 51.8130119 -198 51 C-201.6875 49.5 -201.6875 49.5 -204 48 C-200.06270965 43.06435763 -195.95930503 39.04730306 -190.875 35.3125 C-190.18688232 34.80412598 -189.49876465 34.29575195 -188.78979492 33.77197266 C-161.13829103 13.73625773 -128.83622704 -0.69843649 -95 -6 C-93.95344238 -6.17136475 -93.95344238 -6.17136475 -92.88574219 -6.34619141 C-62.81890462 -11.0376189 -28.94290411 -9.44891926 0 0 Z " fill="#FCFEFE" transform="translate(340,24)"/>
<path d="M0 0 C1.03833984 0.75023437 1.03833984 0.75023437 2.09765625 1.515625 C3.02771484 2.17304688 3.02771484 2.17304688 3.9765625 2.84375 C14.6545447 11.15680997 21.5773298 24.38815819 24.09765625 37.515625 C25.77188163 55.28003748 21.16153075 70.75996981 9.84765625 84.703125 C-0.3876929 95.81195034 -14.51182365 101.68930379 -29.40234375 102.76953125 C-45.65728072 103.28582535 -60.16482453 97.58592303 -72.09765625 86.4453125 C-83.44095348 74.31633235 -88.51300996 59.18309793 -88.14453125 42.80078125 C-87.51629271 28.67163431 -81.18125247 15.25590095 -70.90234375 5.515625 C-50.97945681 -12.60428575 -22.37634151 -14.79304047 0 0 Z " fill="#01ABD5" transform="translate(199.90234375,393.484375)"/>
<path d="M0 0 C1.03833984 0.75023437 1.03833984 0.75023437 2.09765625 1.515625 C3.02771484 2.17304688 3.02771484 2.17304688 3.9765625 2.84375 C14.6545447 11.15680997 21.5773298 24.38815819 24.09765625 37.515625 C25.77188163 55.28003748 21.16153075 70.75996981 9.84765625 84.703125 C-0.3876929 95.81195034 -14.51182365 101.68930379 -29.40234375 102.76953125 C-45.65728072 103.28582535 -60.16482453 97.58592303 -72.09765625 86.4453125 C-83.44095348 74.31633235 -88.51300996 59.18309793 -88.14453125 42.80078125 C-87.51629271 28.67163431 -81.18125247 15.25590095 -70.90234375 5.515625 C-50.97945681 -12.60428575 -22.37634151 -14.79304047 0 0 Z M-62.21484375 19.703125 C-70.64356645 29.78688029 -72.74212122 40.68993272 -71.90234375 53.515625 C-69.79822269 64.25161275 -63.65646442 73.43276936 -54.9921875 79.953125 C-45.11565838 86.55056791 -34.86042682 88.03180267 -23.1328125 86.046875 C-12.7393864 83.29711817 -3.98186624 77.40523789 2.09765625 68.515625 C7.49805578 57.95663488 10.1093408 47.15111328 6.97265625 35.453125 C3.35200836 24.87613974 -2.87831973 16.10806476 -12.97265625 10.9453125 C-30.55798499 3.38405321 -48.60233401 5.42659039 -62.21484375 19.703125 Z " fill="#5FCDE3" transform="translate(199.90234375,393.484375)"/>
<path d="M0 0 C3.4371688 14.73474821 0.53426889 29.47402728 -6.875 42.5 C-16.34017628 56.84190417 -29.32083097 64.96414111 -46 69 C-63.6167772 70.33119906 -79.01840315 66.80916187 -92.875 55.1875 C-98.6880235 49.68493263 -103.10838024 43.45317896 -106 36 C-105.23260498 35.89042969 -104.46520996 35.78085937 -103.67456055 35.66796875 C-68.89856092 30.58597816 -35.13142139 20.98753097 -5.1875 2 C-2 0 -2 0 0 0 Z " fill="#5FCEE4" transform="translate(407,427)"/>
<path d="M0 0 C4.73354181 1.46309474 6.62718888 3.62523282 9.04296875 7.91015625 C9.56503906 8.97105469 10.08710938 10.03195312 10.625 11.125 C21.92127147 32.5879158 41.23010777 45.54504286 63.84765625 52.83984375 C83.96939847 58.32031827 107.06094508 55.82059312 125.4375 46.0625 C126.26765625 45.66804688 127.0978125 45.27359375 127.953125 44.8671875 C144.32578927 36.68085537 156.00565239 23.40498833 164.43261719 7.3684082 C166.19526118 4.04578367 167.24936003 2.18792665 170.4375 0.0625 C174.25043398 -0.16812101 177.49311637 0.26567631 180.4375 2.75 C181.73737139 5.75595259 181.68588961 7.79400821 181.4375 11.0625 C171.53806114 35.5723647 149.8734188 54.29809302 126.0625 64.59765625 C100.58136713 74.89445024 72.70938834 75.10131231 47.25390625 64.72265625 C22.93905821 54.35443803 1.95450216 35.63977193 -8.5625 11.0625 C-9.125 7.875 -9.125 7.875 -8.5625 5.0625 C-5.88937913 1.25532785 -4.71546409 0.08272744 0 0 Z " fill="#02ACD5" transform="translate(225.5625,255.9375)"/>
<path d="M0 0 C7.17040129 3.99815569 12.74957144 9.32285004 15.25 17.30859375 C17.1300907 26.72583375 15.42860437 34.70535464 10.25 42.7265625 C5.22228542 49.18040765 -1.27682515 52.77326787 -9.37109375 53.94140625 C-18.24881692 54.2919915 -24.61391121 51.83043458 -31.5625 46.4375 C-37.66787105 40.69845121 -40.5462171 33.70063151 -40.875 25.375 C-40.45089193 16.73658819 -37.06096662 10.51342725 -31.25 4.2265625 C-22.51171044 -3.56038102 -10.47751461 -4.86927316 0 0 Z " fill="#2A3549" transform="translate(400.3125,154.5)"/>
<path d="M0 0 C7.11063541 3.96483074 12.78946325 9.30193155 15.2421875 17.25 C17.23501142 27.31900509 15.38529723 34.98488839 9.6875 43.5 C4.72542854 49.51243696 -2.42974275 52.82509138 -10.08203125 53.8828125 C-18.72550999 54.24547594 -24.95941564 51.62428112 -31.625 46.25 C-36.96777766 41.30101273 -39.85589039 35.25323121 -40.55078125 28.01953125 C-40.82143084 18.14794361 -37.93824192 11.46254837 -31.25 4.2265625 C-22.51171044 -3.56038102 -10.47751461 -4.86927316 0 0 Z " fill="#2A3549" transform="translate(248.3125,154.5)"/>
<path d="M0 0 C5.54772645 3.80646925 10.10735833 9.01188853 12.140625 15.46875 C13.23458897 23.86428743 11.76689104 30.75001393 6.59765625 37.4765625 C1.16227379 43.42190075 -4.33217311 45.53552354 -12.296875 45.96875 C-19.75287376 45.73123203 -25.16069324 42.56668483 -30.234375 37.21875 C-34.67270587 31.52289205 -36.5195929 24.84030804 -36.1953125 17.65625 C-35.05635636 10.23979139 -30.6593716 5.92022529 -25.17578125 1.1328125 C-17.68122943 -4.25113198 -8.10718954 -4.08275732 0 0 Z " fill="#5FCEE4" transform="translate(179.859375,418.53125)"/>
<path d="M0 0 C3.66252521 2.29972513 4.67650676 3.83300571 5.8359375 8.015625 C6.32257073 10.30751052 6.79773733 12.6018591 7.26171875 14.8984375 C8.97231306 22.08474377 13.47559821 25.81822746 19.625 29.625 C23.56982337 31.23215026 27.29783878 31.77027935 31.51171875 32.27734375 C34.6123344 33.17783652 35.43849646 34.22001174 37 37 C37.42852343 40.42818743 37.40210312 42.2915326 35.6875 45.3125 C32.97537528 48.02462472 30.1701416 48.19929758 26.5 48.3125 C15.37712491 48.15059498 7.07355235 42.86602778 -0.71484375 35.34375 C-8.04983115 27.43017581 -11.47155827 18.08675489 -11.34375 7.3828125 C-11 5 -11 5 -8.875 1.875 C-5.45264744 -0.35696906 -3.99977332 -0.83328611 0 0 Z " fill="#27354A" transform="translate(139,432)"/>
<path d="M0 0 C4.08998175 1.80720124 6.66247347 4.19069751 9 8 C9.62819266 13.0255413 9.03320735 15.95572354 6 20 C3.24705395 23.21177039 0.96958591 23.86947882 -3.25 24.4375 C-8.1843364 23.86182742 -10.79803186 21.71753928 -14 18 C-15.23534045 14.29397865 -15.45528745 11.90246386 -15 8 C-10.91704021 1.64314568 -7.65816344 -0.51919752 0 0 Z " fill="#BAEEF1" transform="translate(391,168)"/>
<path d="M0 0 C4.08998175 1.80720124 6.66247347 4.19069751 9 8 C9.62819266 13.0255413 9.03320735 15.95572354 6 20 C3.24705395 23.21177039 0.96958591 23.86947882 -3.25 24.4375 C-8.1843364 23.86182742 -10.79803186 21.71753928 -14 18 C-15.23534045 14.29397865 -15.45528745 11.90246386 -15 8 C-10.91704021 1.64314568 -7.65816344 -0.51919752 0 0 Z " fill="#BAEEF1" transform="translate(239,168)"/>
</svg>
